<?xml version="1.0" standalone="no"?>
<!DOCTYPE svg PUBLIC "-//W3C//DTD SVG 20010904//EN"
 "http://www.w3.org/TR/2001/REC-SVG-20010904/DTD/svg10.dtd">
<svg version="1.0" xmlns="http://www.w3.org/2000/svg"
 width="300.000000pt" height="227.000000pt" viewBox="0 0 300.000000 227.000000"
 preserveAspectRatio="xMidYMid meet">
<metadata>
Created by potrace 1.10, written by Peter Selinger 2001-2011
</metadata>
<g transform="translate(0.000000,227.000000) scale(0.100000,-0.100000)"
fill="#000000" stroke="none">
<path d="M1301 2109 c-192 -41 -368 -136 -503 -271 -123 -124 -200 -256 -254
-435 -36 -118 -45 -329 -20 -452 85 -420 411 -733 829 -797 372 -57 762 115
970 429 55 82 114 213 138 304 32 118 37 320 11 443 -64 311 -254 557 -537
695 -144 71 -244 96 -410 101 -105 3 -148 0 -224 -17z m462 -53 c168 -50 302
-132 423 -257 96 -101 150 -185 207 -321 13 -31 13 -36 1 -31 -19 7 -18 -41 1
-82 l14 -30 -6 28 c-9 45 -9 56 2 59 5 2 17 -31 27 -72 43 -180 15 -500 -46
-528 -13 -6 -30 -26 -37 -46 -9 -24 -21 -37 -38 -41 -33 -8 -51 -22 -80 -64
-13 -18 -38 -39 -55 -46 -17 -7 -48 -32 -68 -54 -24 -27 -45 -41 -61 -41 -13
0 -39 -11 -58 -25 -81 -60 -141 -69 -209 -34 -52 27 -96 21 -152 -20 -62 -46
-113 -43 -173 9 -39 34 -53 40 -90 40 -36 0 -51 6 -88 39 -25 21 -58 41 -74
45 -15 4 -48 29 -73 56 -31 33 -58 51 -87 59 -60 16 -85 56 -92 146 -7 82 -24
114 -81 150 -53 34 -74 76 -65 129 5 23 9 77 11 121 4 126 18 248 33 273 7 13
13 49 13 79 1 42 7 65 24 91 13 19 24 47 24 61 0 14 14 44 30 65 17 22 30 47
30 56 0 9 14 36 31 59 37 52 131 100 269 136 86 23 109 25 250 21 132 -3 168
-7 243 -30z m-774 -109 c-29 -24 -99 -66 -99 -60 0 11 92 74 99 68 2 -3 2 -7
0 -8z m-39 -65 c0 -4 -14 -16 -31 -26 -17 -10 -35 -29 -41 -42 -12 -25 -38
-33 -38 -11 0 21 76 86 103 87 4 0 7 -4 7 -8z m-55 -111 c3 -5 -4 -12 -15 -16
-27 -9 -60 -53 -60 -82 0 -32 -24 -25 -28 8 -6 47 82 124 103 90z m-129 -33
c-21 -29 -20 -39 2 -32 14 5 14 3 -2 -10 -40 -33 -48 -11 -15 43 11 18 23 31
26 28 3 -3 -2 -16 -11 -29z m-36 -85 c0 -5 -7 -17 -15 -27 -20 -27 -19 -56 3
-56 16 -1 15 -2 -2 -15 -24 -18 -36 -11 -36 21 0 29 26 84 40 84 6 0 10 -3 10
-7z m92 -30 c-15 -6 -42 -56 -42 -79 0 -10 7 -26 17 -36 15 -17 15 -18 -10
-18 -59 0 -55 93 6 130 17 11 34 17 37 13 3 -3 -1 -8 -8 -10z m-187 -103 c-9
-17 -15 -41 -13 -52 2 -12 -3 -23 -9 -25 -8 -3 -13 4 -13 18 0 27 42 118 47
102 3 -7 -3 -26 -12 -43z m45 -22 c-22 -37 -26 -78 -8 -96 15 -15 4 -26 -17
-19 -22 9 -19 75 5 115 11 17 24 32 30 32 5 0 1 -15 -10 -32z m110 -33 c0 -3
-9 -15 -20 -27 -25 -27 -26 -84 -3 -111 17 -18 17 -19 -12 -15 -54 6 -60 84
-10 134 22 22 45 32 45 19z m-200 -95 c-8 -29 -8 -45 -1 -54 11 -13 5 -26 -11
-26 -11 0 -10 73 2 106 16 40 23 22 10 -26z m54 -37 c-19 -39 -18 -69 6 -93
18 -18 19 -21 4 -27 -40 -15 -59 90 -24 132 21 25 30 17 14 -12z m96 -72 c-22
-42 -6 -121 25 -121 8 0 15 -4 15 -10 0 -12 -40 -13 -56 -2 -37 24 -41 97 -7
134 21 24 36 23 23 -1z m-167 -46 c-4 -38 -2 -59 8 -71 12 -14 11 -16 -6 -13
-15 3 -21 14 -23 45 -3 36 11 94 22 94 3 0 2 -25 -1 -55z m61 -42 c-16 -36 -9
-95 14 -114 24 -19 15 -33 -13 -23 -19 8 -35 44 -35 79 0 30 20 75 33 75 5 0
6 -7 1 -17z m-49 -185 c4 -11 3 -18 -3 -18 -12 0 -32 61 -32 96 0 43 15 34 21
-13 4 -26 10 -56 14 -65z m139 72 c-10 -45 3 -79 38 -100 l31 -19 -28 -7 c-23
-6 -33 -2 -52 20 -25 29 -31 83 -13 117 16 29 30 23 24 -11z m-89 -127 c3 -12
15 -31 26 -42 15 -14 17 -21 8 -27 -22 -13 -59 42 -59 90 0 49 14 72 18 29 1
-15 5 -38 7 -50z m230 -57 c15 -16 35 -26 52 -26 27 -1 27 -1 9 -15 -31 -23
-62 -18 -90 16 -28 33 -34 77 -13 112 11 21 12 19 15 -20 2 -27 12 -50 27 -67z
m-250 -40 c6 -14 5 -18 -5 -14 -17 5 -38 63 -39 103 0 26 3 23 18 -20 10 -27
22 -58 26 -69z m109 50 c-8 -34 23 -95 52 -102 28 -7 31 -19 8 -28 -51 -20
-112 102 -72 142 17 17 19 15 12 -12z m-74 -75 c0 -17 11 -43 26 -61 28 -33
26 -53 -2 -29 -32 27 -59 119 -34 119 6 0 10 -13 10 -29z m244 -108 c15 -13
34 -23 42 -23 20 0 17 -17 -5 -30 -62 -32 -144 86 -95 135 18 18 19 17 25 -20
4 -24 17 -48 33 -62z m-130 -48 c9 -13 27 -27 41 -31 28 -7 24 -24 -5 -24 -22
0 -67 51 -76 86 -3 13 -3 32 1 41 6 15 9 12 15 -14 4 -18 15 -44 24 -58z
m1566 56 c0 -41 -51 -111 -82 -111 -25 0 -23 13 5 25 12 6 31 29 42 52 19 40
35 55 35 34z m-1606 -90 c9 -8 16 -20 16 -29 0 -12 -4 -12 -21 4 -26 23 -49
67 -49 91 1 12 8 5 20 -18 10 -19 26 -41 34 -48z m311 -21 c15 -14 37 -23 55
-23 29 0 29 -1 13 -19 -23 -25 -66 -22 -101 7 -36 30 -45 67 -24 97 l16 22 8
-30 c4 -17 19 -41 33 -54z m-170 10 c-17 -28 59 -105 93 -93 17 7 15 -14 -3
-21 -48 -18 -142 84 -108 117 10 11 25 8 18 -3z m1355 -12 c0 -22 -38 -76 -64
-94 -27 -17 -56 -13 -56 7 0 6 7 8 16 5 19 -7 84 53 84 78 0 9 5 16 10 16 6 0
10 -6 10 -12z m-1397 -80 c21 -21 32 -38 25 -38 -22 0 -57 29 -73 60 -18 34
-19 64 -2 35 7 -11 29 -37 50 -57z m331 17 c9 -37 67 -63 106 -48 24 9 30 9
30 -2 0 -20 -40 -45 -72 -45 -30 0 -86 44 -89 70 -5 51 14 70 25 25z m-145
-27 c-6 -45 38 -88 88 -88 20 0 32 -4 28 -10 -11 -17 -71 -11 -99 11 -37 29
-49 55 -36 79 12 23 22 26 19 8z m1071 -28 c0 -10 -16 -32 -36 -50 -27 -23
-44 -30 -67 -28 -17 2 -32 8 -34 14 -2 6 7 9 25 6 34 -5 92 39 92 69 0 11 5
17 10 14 6 -3 10 -14 10 -25z m-982 -5 c13 -28 10 -30 -19 -15 -22 12 -26 40
-6 40 8 0 19 -11 25 -25z m-198 -8 c0 -18 38 -53 75 -68 23 -9 26 -13 12 -16
-21 -5 -83 32 -97 57 -13 24 -13 40 0 40 6 0 10 -6 10 -13z m1260 -1 c0 -17
-78 -86 -97 -86 -21 0 -15 16 10 27 13 6 35 25 48 42 26 33 39 39 39 17z
m-832 -48 c22 -26 77 -33 107 -14 21 14 25 14 25 2 0 -23 -41 -46 -83 -46 -42
0 -87 35 -87 68 0 23 13 38 19 20 2 -7 10 -21 19 -30z m437 -35 c-45 -39 -135
-25 -135 22 0 11 5 11 28 -1 35 -17 96 -3 115 27 12 19 12 19 15 -3 3 -15 -5
-30 -23 -45z m155 -13 c-15 -27 -89 -61 -118 -53 -32 8 -27 20 8 20 45 0 80
23 87 56 5 25 8 27 20 14 12 -12 13 -19 3 -37z m-730 -15 c35 -18 72 -19 88
-3 6 6 14 9 18 6 3 -4 -4 -16 -16 -28 -17 -17 -28 -20 -53 -15 -45 9 -82 38
-85 66 -2 21 -1 22 8 6 6 -9 24 -24 40 -32z m824 -6 c-35 -39 -114 -66 -114
-39 0 6 9 10 21 10 29 0 78 30 85 53 4 14 9 16 17 8 7 -7 5 -17 -9 -32z m-904
-32 c33 -14 33 -15 9 -16 -33 -1 -93 38 -97 64 -4 18 0 17 24 -7 16 -14 45
-33 64 -41z m495 2 c-40 -43 -136 -30 -143 20 -4 22 -3 23 19 7 32 -22 82 -20
110 3 20 16 25 17 27 5 2 -9 -4 -24 -13 -35z m140 -40 c-23 -24 -79 -35 -111
-20 -35 16 -29 28 11 23 42 -5 91 13 101 36 6 15 8 15 11 -1 3 -10 -3 -27 -12
-38z m-362 1 c24 0 48 5 55 12 9 9 12 8 12 -5 0 -20 -30 -37 -65 -37 -32 0
-81 24 -88 44 -9 23 3 26 24 5 13 -13 33 -19 62 -19z m-122 -30 c27 0 38 -4
33 -11 -17 -28 -134 13 -134 47 0 12 7 10 31 -10 22 -18 42 -26 70 -26z m619
36 c0 -16 -76 -56 -108 -56 -11 0 -24 5 -27 10 -4 6 7 10 25 10 34 0 90 25 90
40 0 6 5 10 10 10 6 0 10 -6 10 -14z m-296 -63 c-24 -17 -95 -17 -120 1 -28
21 -15 26 32 14 31 -9 46 -8 69 3 34 17 48 3 19 -18z m-163 -16 c23 4 30 3 25
-5 -9 -15 -90 -16 -117 -2 -34 19 -20 28 21 14 22 -8 53 -11 71 -7z m309 14
c0 -13 -58 -31 -101 -31 -22 0 -39 5 -39 10 0 6 19 10 43 11 23 0 51 4 62 9
27 12 35 12 35 1z"/>
<path d="M1375 2058 c-11 -7 -38 -15 -60 -20 -36 -6 -35 -7 13 -4 33 2 60 10
70 20 19 19 6 21 -23 4z"/>
<path d="M1211 2005 c-13 -14 -29 -25 -37 -25 -8 0 -14 -4 -14 -10 0 -6 9 -6
26 0 46 18 64 30 64 45 0 21 -12 18 -39 -10z"/>
<path d="M1068 1948 c-2 -14 -18 -31 -43 -45 -41 -23 -36 -31 9 -13 32 12 66
45 66 65 0 24 -28 17 -32 -7z"/>
<path d="M1193 1938 c8 -22 -19 -57 -57 -75 l-31 -14 35 6 c61 10 106 78 61
93 -9 3 -12 0 -8 -10z"/>
<path d="M1018 1841 c3 -23 -3 -34 -35 -60 -32 -28 -34 -32 -13 -26 14 4 35
14 48 22 45 28 55 93 14 93 -15 0 -18 -6 -14 -29z"/>
<path d="M1144 1814 c24 -23 19 -52 -13 -85 -20 -19 -25 -29 -14 -29 21 0 73
55 73 79 0 23 -25 51 -46 51 -13 0 -13 -2 0 -16z"/>
<path d="M950 1731 c0 -5 7 -11 15 -15 27 -10 18 -62 -17 -97 -31 -30 -31 -31
-8 -25 35 10 80 62 80 91 0 13 -10 31 -22 39 -25 18 -48 21 -48 7z"/>
<path d="M1090 1675 c0 -3 9 -14 20 -25 27 -27 25 -62 -6 -99 -32 -39 -11 -41
28 -4 46 44 34 105 -24 126 -10 4 -18 4 -18 2z"/>
<path d="M897 1564 c-4 -4 2 -13 13 -21 27 -19 26 -72 -1 -107 -20 -25 -20
-26 -1 -26 26 0 70 42 78 76 10 40 -14 78 -52 82 -16 2 -33 0 -37 -4z"/>
<path d="M2295 1537 c-6 -21 9 -77 20 -77 2 0 2 14 -2 31 -4 20 -1 34 7 39 7
4 9 13 6 19 -11 18 -25 13 -31 -12z"/>
<path d="M1038 1483 c-10 -2 -18 -8 -18 -13 0 -4 8 -6 18 -3 10 2 30 -5 45
-17 29 -23 36 -65 17 -101 -7 -13 -7 -19 -1 -19 15 0 41 55 41 85 0 49 -50 82
-102 68z"/>
<path d="M2320 1391 c-13 -26 -13 -64 2 -96 16 -35 29 -31 16 6 -11 33 2 79
23 79 8 0 8 4 -1 15 -17 20 -27 19 -40 -4z"/>
<path d="M1184 1375 c-18 -14 -17 -14 12 -9 24 5 37 0 63 -22 28 -24 32 -32
29 -66 -4 -45 6 -50 20 -10 28 82 -59 157 -124 107z"/>
<path d="M860 1375 c0 -2 12 -16 26 -30 22 -22 25 -33 21 -62 -4 -20 -14 -44
-23 -54 -19 -21 -7 -24 30 -8 31 15 60 72 50 102 -11 38 -35 57 -71 57 -18 0
-33 -2 -33 -5z"/>
<path d="M2217 1322 c-19 -20 -23 -97 -7 -107 6 -4 7 6 4 24 -9 43 19 85 52
78 20 -3 22 -2 13 9 -16 19 -43 17 -62 -4z"/>
<path d="M2407 1293 c-10 -10 -8 -101 2 -107 5 -3 6 14 3 39 -3 35 -1 46 12
51 9 3 13 10 10 15 -6 11 -18 12 -27 2z"/>
<path d="M993 1265 l-28 -24 38 -1 c55 0 81 -30 74 -87 l-5 -44 24 22 c31 29
39 70 20 108 -29 56 -78 66 -123 26z"/>
<path d="M1352 1264 c-32 -22 -27 -35 7 -18 56 28 121 -15 121 -80 0 -24 3
-27 10 -16 17 27 11 68 -16 99 -20 24 -34 31 -63 31 -20 0 -47 -7 -59 -16z"/>
<path d="M2102 1249 c-28 -11 -55 -70 -46 -104 10 -39 23 -39 17 0 -10 62 41
110 89 84 20 -11 22 -10 10 3 -17 21 -43 27 -70 17z"/>
<path d="M2337 1225 c-24 -24 -30 -69 -13 -106 l16 -34 -6 33 c-8 43 12 90 39
94 l22 3 -22 13 c-18 10 -24 9 -36 -3z"/>
<path d="M853 1178 c-32 -16 -37 -38 -8 -38 34 0 68 -46 63 -87 -2 -18 -1 -33
3 -33 17 0 39 46 39 80 -1 39 -14 61 -47 78 -25 14 -22 14 -50 0z"/>
<path d="M1159 1160 l-24 -19 37 6 c32 5 41 1 69 -26 28 -29 31 -37 26 -74
l-6 -42 20 24 c66 81 -42 198 -122 131z"/>
<path d="M1529 1141 c-39 -39 -37 -60 2 -27 17 14 43 26 58 26 32 0 81 -34 81
-56 0 -8 5 -14 10 -14 12 0 12 0 -1 39 -22 63 -102 80 -150 32z"/>
<path d="M1901 1136 c-25 -26 -39 -90 -22 -100 7 -5 11 4 11 24 0 38 39 80 75
80 15 0 36 -11 50 -26 14 -15 25 -22 25 -15 0 7 -11 23 -25 36 -32 33 -83 34
-114 1z"/>
<path d="M2211 1124 c-22 -28 -27 -79 -11 -104 7 -11 10 -6 10 20 0 51 25 83
61 78 31 -5 36 1 17 20 -20 20 -55 13 -77 -14z"/>
<path d="M2412 1128 c-7 -7 -11 -36 -11 -67 l2 -56 6 47 c4 27 12 53 19 60 14
14 16 28 4 28 -4 0 -13 -5 -20 -12z"/>
<path d="M982 1060 c-28 -26 -28 -32 1 -25 17 5 33 -1 55 -20 26 -22 32 -34
32 -67 0 -40 0 -41 19 -24 29 26 35 69 17 105 -28 53 -85 67 -124 31z"/>
<path d="M1351 1057 c-14 -6 -26 -18 -29 -25 -3 -11 0 -12 16 -3 33 18 67 13
97 -15 24 -23 27 -30 22 -72 l-5 -47 19 24 c34 42 18 111 -32 137 -34 17 -56
18 -88 1z"/>
<path d="M1726 1039 c-28 -22 -51 -57 -42 -66 3 -3 17 9 31 26 43 51 114 36
138 -29 3 -9 6 -5 6 10 0 29 -15 52 -46 68 -32 17 -57 15 -87 -9z"/>
<path d="M2083 1048 c-29 -14 -55 -70 -47 -103 9 -36 21 -39 21 -4 0 34 37 79
65 79 11 0 28 -5 39 -10 29 -16 24 5 -7 29 -30 23 -39 24 -71 9z"/>
<path d="M2325 1040 c-21 -23 -32 -104 -16 -114 7 -5 11 4 11 26 0 43 26 81
51 75 22 -6 25 3 7 21 -17 17 -32 15 -53 -8z"/>
<path d="M2400 965 c-15 -19 -27 -115 -14 -115 5 0 14 19 21 43 6 23 14 52 18
65 8 25 -6 30 -25 7z"/>
<path d="M1158 955 c-38 -21 -35 -35 7 -35 51 0 88 -39 83 -86 -2 -19 -1 -34
2 -34 18 0 40 41 40 73 0 70 -73 115 -132 82z"/>
<path d="M1550 953 c-21 -8 -60 -45 -60 -56 0 -6 9 -2 20 8 27 24 84 23 112
-2 11 -10 27 -31 34 -48 l13 -30 1 37 c0 62 -66 112 -120 91z"/>
<path d="M2212 953 c-31 -12 -57 -113 -32 -128 6 -4 10 6 10 23 0 16 10 42 21
57 18 22 28 26 51 21 26 -5 28 -4 18 14 -10 19 -39 25 -68 13z"/>
<path d="M1885 924 c-19 -20 -25 -38 -24 -68 l1 -41 12 34 c23 63 78 88 124
55 26 -18 29 -8 6 24 -23 33 -87 31 -119 -4z"/>
<path d="M2317 878 c-23 -18 -49 -86 -42 -109 9 -28 22 -23 29 11 3 17 17 42
32 55 38 35 21 73 -19 43z"/>
<path d="M993 868 c-35 -17 -37 -38 -4 -38 38 0 81 -49 81 -92 0 -30 0 -31 20
-13 29 26 27 85 -5 119 -13 14 -28 26 -34 26 -5 0 -15 2 -23 4 -7 3 -23 0 -35
-6z"/>
<path d="M2046 833 c-32 -32 -42 -67 -28 -96 9 -19 11 -19 11 -4 2 56 63 107
102 86 29 -15 34 -4 10 20 -28 28 -63 26 -95 -6z"/>
<path d="M1316 819 c-33 -39 -33 -56 -1 -35 13 9 35 16 49 16 32 0 86 -46 86
-73 1 -22 1 -22 15 -3 22 29 18 61 -11 95 -21 26 -33 31 -69 31 -36 0 -48 -5
-69 -31z"/>
<path d="M1699 821 c-17 -18 -29 -40 -29 -56 l0 -27 26 31 c35 42 92 44 123 4
12 -14 24 -24 27 -21 11 12 -9 59 -33 78 -37 29 -79 26 -114 -9z"/>
<path d="M2175 756 c-30 -30 -41 -70 -27 -99 9 -21 10 -21 17 8 10 40 43 75
72 75 25 0 29 10 11 28 -19 19 -47 14 -73 -12z"/>
<path d="M1139 740 l-24 -19 33 -1 c18 0 43 -7 56 -15 27 -18 51 -68 41 -84
-13 -21 14 -11 29 11 24 34 19 66 -13 99 -36 35 -87 39 -122 9z"/>
<path d="M1524 739 c-22 -11 -59 -67 -51 -76 3 -2 19 5 35 17 38 29 83 20 116
-22 22 -29 24 -29 30 -11 8 24 -6 64 -27 81 -21 18 -78 24 -103 11z"/>
<path d="M1873 732 c-26 -20 -45 -65 -37 -87 5 -11 12 -7 28 17 30 45 69 58
107 36 33 -19 39 -7 13 30 -19 27 -79 30 -111 4z"/>
<path d="M2030 658 c-35 -24 -56 -68 -46 -95 6 -14 10 -12 25 13 25 42 48 57
82 57 33 0 39 21 10 37 -27 14 -34 13 -71 -12z"/>
<path d="M1350 653 c-19 -7 -60 -44 -60 -54 0 -5 11 -4 25 1 38 15 92 -11 109
-51 l14 -32 17 27 c15 23 16 30 4 57 -16 41 -70 66 -109 52z"/>
<path d="M1679 621 c-16 -16 -29 -40 -29 -52 0 -23 0 -23 28 4 36 35 92 37
122 5 l20 -22 0 27 c0 67 -88 91 -141 38z"/>
<path d="M1841 544 c-20 -16 -31 -35 -31 -51 l0 -26 24 26 c30 32 69 43 102
28 20 -9 24 -8 24 7 0 48 -70 57 -119 16z"/>
<path d="M1496 539 c-18 -14 -26 -30 -26 -51 l0 -31 23 21 c27 26 82 29 113 7
40 -27 47 13 9 50 -30 31 -82 33 -119 4z"/>
</g>
</svg>
